<svg t="1577352427371" class="icon" viewBox="0 0 1024 1024" version="1.1" xmlns="http://www.w3.org/2000/svg" p-id="8325" width="28" height="28"><path d="M779.249717 250.869654c-4.39203-1.769296-4.39203-2.654456-6.996344-6.219655-2.629897-2.680039-3.498684-2.680039-6.128581-5.360078-11.388375-16.054651-17.516956-30.314423-18.384719-52.614311-0.868787-31.224142-11.363815-49.049113-41.136909-52.614311-27.118638-2.680039-45.503357-0.88516-68.255547-24.979928-11.363815-12.489452-12.257162-16.939811-20.122293-26.749224-13.124925-17.824971-21.883403-16.054651-28.011984-19.61985l-9.626241 0c-3.498684 1.794879-11.363815 2.680039-16.623609 5.360078-5.259794 2.680039-9.626241 4.449335-14.887059 7.129374-23.619954 12.489452-47.240931 10.694573-70.885444 0.88516-5.235235-2.680039-8.733918-5.334495-13.993712-8.014534-5.259794-1.794879-12.257162-2.680039-17.492396-5.360078l-9.627265 0c-0.893346 0-0.893346 0-0.893346 0l-2.629897 0.88516c-15.730263 5.360078-21.858844 11.605316-31.485085 28.545126-7.889691 12.489452-18.384719 24.069185-32.378431 31.224142-21.014616 11.579733-28.880771 8.014534-51.631938 11.579733-49.895387 7.129374-33.271778 54.409191-45.528939 82.928734-6.104021 16.965393-15.730263 26.774807-27.987425 35.674501-13.124925 9.809413-25.382087 15.169491-32.378431 31.225165-7.889691 20.50501 2.605338 34.764781 9.627265 49.934273 22.75219 49.934273-5.259794 74.9142-10.519588 98.983385-5.235235 21.414729 6.128581 36.559661 16.648169 44.599777 14.861476 11.579733 21.858844 12.489452 34.983769 29.429263 28.011984 36.559661 5.259794 73.119321 34.140565 93.623307 25.382087 18.73469 53.394071-4.449335 92.768847 34.789341 11.363815 10.694573 15.754822 25.865087 28.011984 35.674501 14.861476 12.489452 31.485085 10.694573 48.134277 2.680039 16.623609-8.040117 27.118638-15.169491 49.002041-14.285355 21.883403 0 32.378431 8.040117 48.133254 16.054651 23.619954 10.694573 42.005696 3.565199 55.999408-14.259772 6.128581-9.809413 9.626241-17.84953 19.253506-28.545126 35.877115-34.789341 67.38676-14.259772 93.637634-33.879622 5.259794-3.565199 9.626241-10.720156 13.124925-18.73469 6.996344-23.185049-6.128581-57.974389 36.770462-90.968851 13.124925-9.809413 44.635593-23.185049 33.247218-59.743686-6.996344-22.299889-33.247218-51.729152-7.865131-98.983385C839.640132 270.489504 783.616164 262.47497 779.249717 250.869654L779.249717 250.869654z" p-id="8326" fill="#9dd7e4"></path><path d="M149.143808 876.905874l106.762559-12.489452c1.76111 3.589758 56.023968 87.403652 59.521628 90.083691l123.386168-260.391519c-62.126966-1.794879-39.375799-64.219627-112.022353-68.668962-13.124925-0.909719-24.488741 0-36.745902-8.040117-4.366448-2.680039-3.498684-2.680039-6.128581-6.245238l-1.76111-1.77032c-4.366448 10.694573-91.007737 181.91212-99.766215 199.762673C177.155792 819.842227 150.905942 869.7765 149.143808 876.905874L149.143808 876.905874z" p-id="8327" fill="#9dd7e4"></path><path d="M724.987882 959.860191c3.498684-1.794879 4.366448-7.154957 6.128581-11.605316 1.736551-4.450359 2.629897-8.014534 4.366448-12.489452l28.011984-73.119321 105.026008 14.259772c-1.76111-8.014534-12.257162-24.954345-16.648169-32.994462-20.122293-41.008996-46.372144-86.493933-67.38676-128.413672-5.235235-10.694573-11.363815-21.389146-17.492396-32.109302l-32.378431-62.423725c-1.76111-1.77032 0-0.88516-2.629897-1.77032-34.114982 5.334495-69.124334 8.014534-84.010369 32.109302-9.627265 16.029068-10.495028 20.50501-26.249851 32.084743-11.388375 8.040117-28.011984 14.285355-46.396703 12.489452l37.638225 65.988924C619.093087 773.47213 724.119095 956.269409 724.987882 959.860191L724.987882 959.860191z" p-id="8328" fill="#9dd7e4"></path></svg>