<svg t="1577351892080" class="icon" viewBox="0 0 1024 1024" version="1.1" xmlns="http://www.w3.org/2000/svg" p-id="4365" width="28" height="28"><path d="M565.525388 776.258065c16.020645 0 29.035355-14.765419 29.035355-33.032259 0-18.266839-13.01471-33.032258-29.035355-33.032258h-123.606709c-16.020645 0-29.035355 14.765419-29.035355 33.032258 0 18.266839 13.01471 33.032258 29.035355 33.032259h123.606709z" fill="#f4ea2a" p-id="4366"></path><path d="M559.596098 759.741935h-111.731613S403.17184 957.307871 313.78655 957.307871V1024h379.870967v-66.692129C604.305259 957.307871 559.596098 759.741935 559.596098 759.741935zM1004.127711 21.256258h-202.818065C799.542421 7.646968 798.22113 0 798.22113 0H225.755582s-1.32129 7.646968-3.105032 21.256258H19.832485s-54.453677 477.150968 276.727742 522.900645c34.287484 56.154839 81.639226 103.523097 147.059613 133.004387h136.704c65.436903-29.48129 112.805161-76.849548 147.076129-133.004387 331.148387-45.749677 276.727742-522.900645 276.727742-522.900645zM62.361517 78.963613h154.392775c-7.779097 99.823484-9.232516 275.439484 54.172903 416.272516-66.229677-24.955871-219.714065-115.579871-208.565678-416.272516z m690.688 416.272516c63.372387-140.833032 61.935484-316.449032 54.156388-416.272516h154.392774c11.164903 300.692645-142.369032 391.316645-208.549162 416.272516zM396.367195 256v-72.258065c33.032258-13.757935 64-31.661419 92.903226-53.677419h74.32258V495.483871H483.076872V208.516129A444.11871 444.11871 0 0 1 396.367195 256z" fill="#f4ea2a" p-id="4367"></path></svg>