<svg t="1577352129729" class="icon" viewBox="0 0 1024 1024" version="1.1" xmlns="http://www.w3.org/2000/svg" p-id="6911" width="28" height="28"><path d="M565.525388 776.258065c16.020645 0 29.035355-14.765419 29.035355-33.032259 0-18.266839-13.01471-33.032258-29.035355-33.032258h-123.606709c-16.020645 0-29.035355 14.765419-29.035355 33.032258 0 18.266839 13.01471 33.032258 29.035355 33.032259h123.606709z" fill="#e19449" p-id="6912"></path><path d="M559.596098 759.741935h-111.731613S403.17184 957.307871 313.78655 957.307871V1024h379.870967v-66.692129C604.305259 957.307871 559.596098 759.741935 559.596098 759.741935zM1004.127711 21.256258h-202.818065C799.542421 7.646968 798.22113 0 798.22113 0H225.755582s-1.32129 7.646968-3.105032 21.256258H19.832485s-54.453677 477.150968 276.727742 522.900645c34.287484 56.154839 81.639226 103.523097 147.059613 133.004387h136.704c65.436903-29.48129 112.805161-76.849548 147.076129-133.004387 331.148387-45.749677 276.727742-522.900645 276.727742-522.900645zM62.361517 78.963613h154.392775c-7.779097 99.823484-9.232516 275.439484 54.172903 416.272516-66.229677-24.955871-219.714065-115.579871-208.565678-416.272516z m690.688 416.272516c63.372387-140.833032 61.935484-316.449032 54.156388-416.272516h154.392774c11.164903 300.692645-142.369032 391.316645-208.549162 416.272516z m-377.327483-100.913548h80.516129c1.370839 34.403097 16.516129 52.983742 45.419354 55.741935 28.903226-1.370839 44.725677-19.951484 47.483871-55.741935-1.370839-41.290323-30.967742-61.241806-88.774193-59.870968v-51.612903c59.17729 0 88.774194-19.274323 88.774193-57.806452-1.370839-31.661419-16.516129-48.177548-45.419354-49.548387-26.145032 4.129032-40.596645 20.645161-43.354839 49.548387H379.851066c2.758194-66.064516 44.048516-100.467613 123.870968-103.225806 77.080774 8.258065 118.371097 39.225806 123.870967 92.903225-2.758194 49.548387-26.145032 79.822452-70.193548 90.83871 46.790194 15.14529 70.887226 48.177548 72.258064 99.096774-8.258065 57.806452-51.612903 89.467871-130.064516 94.967742-83.951484 0-125.241806-35.096774-123.870967-105.290322z" fill="#e19449" p-id="6913"></path></svg>