<svg t="1577351949454" class="icon" viewBox="0 0 1024 1024" version="1.1" xmlns="http://www.w3.org/2000/svg" p-id="5525" width="28" height="28"><path d="M565.525388 776.258065c16.020645 0 29.035355-14.765419 29.035355-33.032259 0-18.266839-13.01471-33.032258-29.035355-33.032258h-123.606709c-16.020645 0-29.035355 14.765419-29.035355 33.032258 0 18.266839 13.01471 33.032258 29.035355 33.032259h123.606709z" fill="#cdcdcd" p-id="5526"></path><path d="M559.596098 759.741935h-111.731613S403.17184 957.307871 313.78655 957.307871V1024h379.870967v-66.692129C604.305259 957.307871 559.596098 759.741935 559.596098 759.741935zM1004.127711 21.256258h-202.818065C799.542421 7.646968 798.22113 0 798.22113 0H225.755582s-1.32129 7.646968-3.105032 21.256258H19.832485s-54.453677 477.150968 276.727742 522.900645c34.287484 56.154839 81.639226 103.523097 147.059613 133.004387h136.704c65.436903-29.48129 112.805161-76.849548 147.076129-133.004387 331.148387-45.749677 276.727742-522.900645 276.727742-522.900645zM62.361517 78.963613h154.392775c-7.779097 99.823484-9.232516 275.439484 54.172903 416.272516-66.229677-24.955871-219.714065-115.579871-208.565678-416.272516z m690.688 416.272516c63.372387-140.833032 61.935484-316.449032 54.156388-416.272516h154.392774c11.164903 300.692645-142.369032 391.316645-208.549162 416.272516zM375.722034 495.483871v-74.322581c5.499871-5.499871 19.951484-18.580645 43.354838-39.225806 90.83871-77.080774 135.564387-130.064516 134.193549-158.967742-2.758194-28.903226-17.886968-44.725677-45.419355-47.483871-27.532387 2.758194-42.661161 21.338839-45.419355 55.741935h-80.516129c0-68.82271 41.984-105.290323 125.935484-109.419354 79.822452 4.129032 121.806452 38.532129 125.935484 103.225806 0 42.661161-39.919484 97.725935-119.741936 165.16129-23.403355 17.886968-42.661161 35.096774-57.806451 51.612904H635.851066V495.483871H375.722034z" fill="#cdcdcd" p-id="5527"></path></svg>